<svg width="120" height="40" viewBox="0 0 120 40" fill="none" xmlns="http://www.w3.org/2000/svg">
<path fill-rule="evenodd" clip-rule="evenodd" d="M45.7388 12.0958H39.5616C39.1391 12.0956 38.7793 12.4029 38.7135 12.8202L36.2152 28.6601C36.1919 28.8088 36.235 28.9603 36.3329 29.0746C36.4309 29.1889 36.574 29.2546 36.7246 29.2544H39.6736C40.0964 29.2546 40.4563 28.9468 40.5217 28.5291L41.1955 24.2569C41.2609 23.8395 41.6203 23.5318 42.0428 23.5316H43.9983C48.0673 23.5316 50.4157 21.5625 51.029 17.6606C51.3054 15.9535 51.0407 14.6122 50.2414 13.6729C49.3634 12.6414 47.8063 12.0958 45.7388 12.0958ZM46.4514 17.881C46.1136 20.0975 44.4201 20.0975 42.7825 20.0975H41.8504L42.5043 15.958C42.5439 15.7078 42.7595 15.5236 43.0128 15.5236H43.4401C44.5555 15.5236 45.6078 15.5236 46.1515 16.1594C46.4758 16.5388 46.5752 17.1024 46.4514 17.881ZM61.2454 17.8096H64.2034C64.3537 17.8096 64.4965 17.8754 64.594 17.9898C64.6915 18.1042 64.7339 18.2556 64.7101 18.404L63.1114 28.5282C63.046 28.9459 62.6861 29.2537 62.2633 29.2535H59.5988C59.4482 29.2533 59.3052 29.1871 59.2076 29.0724C59.1099 28.9578 59.0674 28.8061 59.0912 28.6574L59.223 27.8354C59.223 27.8354 57.7625 29.529 55.1287 29.529C53.5941 29.529 52.3043 29.0864 51.4029 28.0242C50.4202 26.869 50.0183 25.2125 50.301 23.4801C50.8447 20.0072 53.6366 17.5314 56.9054 17.5314C58.3306 17.5314 59.7586 17.8421 60.399 18.7716L60.6059 19.0714L60.7368 18.2441C60.7764 17.9939 60.9921 17.8096 61.2454 17.8096ZM60.0802 23.5668C59.7948 25.2567 58.4535 26.3912 56.7428 26.3912C55.8838 26.3912 55.1974 26.1157 54.7566 25.5936C54.3194 25.0752 54.1532 24.3372 54.2923 23.5153C54.5588 21.8398 55.9226 20.6683 57.6072 20.6683C58.4472 20.6683 59.13 20.9474 59.5798 21.474C60.0305 22.006 60.2094 22.7485 60.0802 23.5668ZM76.985 17.8096H79.9575C80.149 17.8097 80.3247 17.9162 80.4135 18.0859C80.5022 18.2557 80.4894 18.4607 80.3802 18.618L70.4935 32.889C70.3331 33.1202 70.0694 33.2579 69.7881 33.2575H66.8192C66.6265 33.2576 66.45 33.1501 66.3615 32.979C66.2731 32.8078 66.2876 32.6017 66.3992 32.4446L69.4774 28.0992L66.2032 18.4907C66.1495 18.3332 66.1751 18.1595 66.2721 18.0243C66.3691 17.8892 66.5254 17.8092 66.6918 17.8096H69.6128C69.9924 17.8098 70.3271 18.0586 70.4366 18.422L72.1744 24.2252L76.2741 18.1863C76.4343 17.951 76.7004 17.8101 76.985 17.8096Z" fill="#151515"/>
<path fill-rule="evenodd" clip-rule="evenodd" d="M109.215 28.6601L111.751 12.5303C111.79 12.2803 112.005 12.0959 112.258 12.095H115.112C115.263 12.0952 115.406 12.1613 115.503 12.2757C115.601 12.3902 115.643 12.5416 115.62 12.6902L113.12 28.5292C113.055 28.9474 112.695 29.2545 112.272 29.2545H109.723C109.572 29.2545 109.43 29.1886 109.332 29.0743C109.234 28.96 109.192 28.8086 109.215 28.6601ZM89.7995 12.0959H83.6214C83.1993 12.0961 82.8399 12.4033 82.7742 12.8203L80.2759 28.6601C80.2523 28.8086 80.295 28.96 80.3927 29.0743C80.4903 29.1886 80.6331 29.2545 80.7835 29.2545H83.9538C84.2493 29.254 84.5005 29.0388 84.5463 28.7468L85.2553 24.2569C85.3207 23.8396 85.6801 23.5319 86.1026 23.5316H88.0572C92.1271 23.5316 94.4746 21.5626 95.0888 17.6606C95.3661 15.9536 95.0996 14.6123 94.3002 13.6729C93.4232 12.6414 91.867 12.0959 89.7995 12.0959ZM90.5121 17.881C90.1752 20.0976 88.4817 20.0976 86.8432 20.0976H85.912L86.5668 15.9581C86.6056 15.7078 86.8212 15.5233 87.0744 15.5236H87.5017C88.6162 15.5236 89.6694 15.5236 90.2132 16.1595C90.5374 16.5388 90.6359 17.1025 90.5121 17.881ZM105.307 17.8097H108.263C108.414 17.8095 108.557 17.8752 108.655 17.9894C108.753 18.1037 108.796 18.2552 108.774 18.404L107.174 28.5283C107.109 28.9456 106.749 29.2533 106.327 29.2536H103.663C103.512 29.2539 103.369 29.1879 103.271 29.0732C103.173 28.9584 103.13 28.8065 103.154 28.6574L103.286 27.8355C103.286 27.8355 101.825 29.529 99.1912 29.529C97.6566 29.529 96.3686 29.0865 95.4654 28.0243C94.4827 26.869 94.0826 25.2125 94.3644 23.4801C94.9081 20.0072 97.6991 17.5315 100.968 17.5315C102.393 17.5315 103.82 17.8422 104.461 18.7716L104.668 19.0715L104.799 18.2441C104.838 17.9937 105.054 17.809 105.307 17.8097ZM104.14 23.5668C103.856 25.2568 102.513 26.3912 100.803 26.3912C99.9454 26.3912 99.2572 26.1157 98.8164 25.5937C98.3792 25.0752 98.2148 24.3373 98.3521 23.5154C98.6204 21.8399 99.9824 20.6684 101.667 20.6684C102.507 20.6684 103.19 20.9475 103.64 21.4741C104.092 22.0061 104.271 22.7485 104.14 23.5668Z" fill="#151515"/>
<path d="M10.563 32.3327L11.0354 29.3322L9.98314 29.3078H4.9585L8.45037 7.167C8.47185 7.02717 8.59252 6.92418 8.73398 6.92493H17.2062C20.0189 6.92493 21.9599 7.51022 22.9733 8.66545C23.4484 9.20738 23.751 9.77371 23.8973 10.3969C24.0509 11.0509 24.0536 11.8322 23.9037 12.7851L23.8928 12.8546V13.4652L24.3679 13.7344C24.7306 13.9181 25.0566 14.1667 25.3299 14.4678C25.7363 14.9311 25.9991 15.52 26.1102 16.2182C26.2249 16.9363 26.187 17.7907 25.9991 18.7581C25.7824 19.8709 25.4319 20.84 24.9586 21.6331C24.541 22.3435 23.9796 22.9588 23.3102 23.4395C22.6816 23.8857 21.9346 24.2244 21.0901 24.4412C20.2718 24.6544 19.3388 24.7618 18.3154 24.7618H17.656C17.1846 24.7618 16.7266 24.9316 16.3671 25.236C16.0082 25.5437 15.77 25.9687 15.6951 26.4355L15.6455 26.7056L14.8109 31.994L14.7729 32.1882C14.763 32.2496 14.7459 32.2803 14.7206 32.3011C14.6961 32.3211 14.6655 32.3322 14.6339 32.3327H10.563Z" fill="#253B80"/>
<path d="M24.8174 12.925C24.7921 13.0867 24.7632 13.252 24.7307 13.4218C23.6134 19.1582 19.791 21.1399 14.909 21.1399H12.4234C11.8263 21.1399 11.3232 21.5734 11.2302 22.1623L9.95756 30.2336L9.59717 32.5214C9.56812 32.7051 9.62091 32.8923 9.74165 33.0337C9.86238 33.1751 10.039 33.2566 10.2249 33.2567H14.6336C15.1556 33.2567 15.5991 32.8773 15.6813 32.3625L15.7247 32.1385L16.5547 26.8709L16.608 26.5818C16.6893 26.0652 17.1337 25.6858 17.6558 25.6858H18.3151C22.5865 25.6858 25.9302 23.9516 26.9075 18.9333C27.3158 16.8369 27.1044 15.0865 26.0241 13.8554C25.6818 13.4745 25.2728 13.1593 24.8174 12.925V12.925Z" fill="#636363"/>
<path d="M23.6489 12.459C23.2922 12.3558 22.9293 12.2752 22.5623 12.2178C21.8373 12.1064 21.1046 12.0529 20.3711 12.0579H13.7306C13.2084 12.0575 12.764 12.438 12.6838 12.9539L11.2711 21.9013L11.2305 22.1623C11.3214 21.5738 11.8281 21.1396 12.4236 21.1399H14.9093C19.7912 21.1399 23.6137 19.1573 24.731 13.4218C24.7644 13.252 24.7924 13.0867 24.8177 12.925C24.5229 12.7704 24.2156 12.6408 23.8991 12.5376C23.8161 12.51 23.7327 12.4838 23.6489 12.459Z" fill="#393939"/>
<path d="M12.6835 12.9539C12.7631 12.4377 13.2081 12.0572 13.7304 12.0588H20.3709C21.1576 12.0588 21.8919 12.1103 22.5621 12.2187C23.0156 12.29 23.4629 12.3966 23.8998 12.5375C24.2295 12.6468 24.5357 12.776 24.8184 12.925C25.1508 10.8052 24.8157 9.36181 23.6695 8.05484C22.4059 6.616 20.1252 6 17.2069 6H8.73463C8.1385 6 7.62999 6.43355 7.53786 7.02335L4.00896 29.3917C3.97569 29.6019 4.03604 29.8161 4.17414 29.978C4.31223 30.1399 4.51424 30.2333 4.72702 30.2335H9.9576L11.2709 21.9013L12.6835 12.9539Z" fill="#151515"/>
<path opacity="0.01" fill-rule="evenodd" clip-rule="evenodd" d="M0 0H120V40H0V0Z" fill="white"/>
</svg>
