<svg width="86" height="40" viewBox="0 0 86 40" fill="none" xmlns="http://www.w3.org/2000/svg">
<path d="M36.5857 31.6591H30.1499L34.1753 6.76892H40.6108L36.5857 31.6591Z" fill="#151515"/>
<path d="M59.916 7.37742C58.6466 6.8738 56.6332 6.31775 54.1436 6.31775C47.788 6.31775 43.3125 9.70687 43.285 14.5523C43.2323 18.1272 46.4894 20.1128 48.9255 21.3048C51.4154 22.5229 52.2618 23.3179 52.2618 24.4036C52.2365 26.0711 50.2498 26.8397 48.3969 26.8397C45.8274 26.8397 44.4506 26.4434 42.3584 25.5157L41.5109 25.118L40.6104 30.7053C42.1198 31.393 44.9008 32.0033 47.788 32.03C54.5409 32.03 58.9373 28.6933 58.9894 23.5298C59.0151 20.6963 57.2952 18.5253 53.5872 16.7512C51.3362 15.6123 49.9577 14.8444 49.9577 13.6791C49.9841 12.6198 51.1237 11.5348 53.6646 11.5348C55.7569 11.4817 57.2941 11.9846 58.4587 12.4878L59.0408 12.7521L59.916 7.37742Z" fill="#151515"/>
<path fill-rule="evenodd" clip-rule="evenodd" d="M71.436 6.76892H76.4141L81.6062 31.6587H75.6473C75.6473 31.6587 75.0641 28.7989 74.8794 27.9251H66.6163C66.3774 28.5867 65.2656 31.6587 65.2656 31.6587H58.5127L68.0723 8.83407C68.7346 7.21869 69.9009 6.76892 71.436 6.76892ZM71.0394 15.8773C71.0394 15.8773 69 21.4115 68.47 22.8414H73.8193C73.5547 21.5969 72.3359 15.6391 72.3359 15.6391L71.8862 13.4944C71.6968 14.0466 71.4228 14.8059 71.2381 15.3181C71.1129 15.6652 71.0286 15.8988 71.0394 15.8773Z" fill="#151515"/>
<path d="M24.7747 6.76892L18.4719 23.7416L17.7832 20.2994C16.6179 16.3274 12.9635 12.012 8.88525 9.86629L14.6584 31.6327H21.4641L31.58 6.76892H24.7747V6.76892Z" fill="#151515"/>
<path d="M12.6192 6.76892H2.26462L2.15869 7.27183C10.2359 9.33733 15.5853 14.3161 17.7831 20.3004L15.5322 8.86117C15.1616 7.27148 14.0227 6.82136 12.6192 6.76892Z" fill="#151515"/>
<path opacity="0.01" fill-rule="evenodd" clip-rule="evenodd" d="M0 0H86V40H0V0Z" fill="white"/>
</svg>
