<svg width="80" height="27" viewBox="0 0 80 27" fill="none" xmlns="http://www.w3.org/2000/svg">
<path d="M34.5857 25.6591H28.1499L32.1753 0.768921H38.6108L34.5857 25.6591Z" fill="#151515"/>
<path d="M57.916 1.37742C56.6466 0.873804 54.6332 0.317749 52.1436 0.317749C45.788 0.317749 41.3125 3.70687 41.285 8.55229C41.2323 12.1272 44.4894 14.1128 46.9255 15.3048C49.4154 16.5229 50.2618 17.3179 50.2618 18.4036C50.2365 20.0711 48.2498 20.8397 46.3969 20.8397C43.8274 20.8397 42.4506 20.4434 40.3584 19.5157L39.5109 19.118L38.6104 24.7053C40.1198 25.393 42.9008 26.0033 45.788 26.03C52.5409 26.03 56.9373 22.6933 56.9894 17.5298C57.0151 14.6963 55.2952 12.5253 51.5872 10.7512C49.3362 9.61231 47.9577 8.84439 47.9577 7.67914C47.9841 6.61982 49.1237 5.53481 51.6646 5.53481C53.7569 5.48167 55.2941 5.98458 56.4587 6.48785L57.0408 6.75215L57.916 1.37742Z" fill="#151515"/>
<path fill-rule="evenodd" clip-rule="evenodd" d="M69.436 0.768921H74.4141L79.6062 25.6587H73.6473C73.6473 25.6587 73.0641 22.7989 72.8794 21.9251H64.6163C64.3774 22.5867 63.2656 25.6587 63.2656 25.6587H56.5127L66.0723 2.83407C66.7346 1.21869 67.9009 0.768921 69.436 0.768921ZM69.0394 9.87731C69.0394 9.87731 67 15.4115 66.47 16.8414H71.8193C71.5547 15.5969 70.3359 9.63905 70.3359 9.63905L69.8862 7.49437C69.6968 8.04665 69.4228 8.80594 69.2381 9.31807C69.1129 9.66521 69.0286 9.89878 69.0394 9.87731Z" fill="#151515"/>
<path d="M22.7747 0.768921L16.4719 17.7416L15.7832 14.2994C14.6179 10.3274 10.9635 6.01203 6.88525 3.86629L12.6584 25.6327H19.4641L29.58 0.768921H22.7747V0.768921Z" fill="#151515"/>
<path d="M10.6192 0.768921H0.264623L0.158691 1.27183C8.23592 3.33733 13.5853 8.31613 15.7831 14.3004L13.5322 2.86117C13.1616 1.27148 12.0227 0.821359 10.6192 0.768921Z" fill="#151515"/>
</svg>
